# Blender v2.93.1 OBJ File: ''
# www.blender.org
o Model
v 0.847124 0.847124 -1.000000
v 0.847124 1.000000 -0.847124
v 1.000000 0.847124 -0.847124
v 0.847124 -1.000000 -0.847124
v 0.847124 -0.847124 -1.000000
v 1.000000 -0.847124 -0.847124
v 1.000000 0.847124 0.847124
v 0.847124 1.000000 0.847124
v 0.847124 0.847124 1.000000
v 1.000000 -0.847124 0.847124
v 0.847124 -0.847124 1.000000
v 0.847124 -1.000000 0.847124
v -0.847124 0.847124 -1.000000
v -1.000000 0.847124 -0.847124
v -0.847124 1.000000 -0.847124
v -1.000000 -0.847124 -0.847124
v -0.847124 -0.847124 -1.000000
v -0.847124 -1.000000 -0.847124
v -1.000000 0.847124 0.847124
v -0.847124 0.847124 1.000000
v -0.847124 1.000000 0.847124
v -0.847124 -1.000000 0.847124
v -0.847124 -0.847124 1.000000
v -1.000000 -0.847124 0.847124
vt 0.355890 0.519110
vt 0.144110 0.730890
vt 0.144110 0.519110
vt 0.605890 0.019110
vt 0.394110 0.230890
vt 0.394110 0.019110
vt 0.605890 0.769110
vt 0.394110 0.980891
vt 0.394110 0.769110
vt 0.855891 0.519110
vt 0.644110 0.730890
vt 0.644110 0.519110
vt 0.605890 0.519110
vt 0.394110 0.730890
vt 0.394110 0.519110
vt 0.605890 0.480890
vt 0.625000 0.480890
vt 0.605890 0.500000
vt 0.355890 0.500000
vt 0.375000 0.519110
vt 0.605890 0.730890
vt 0.625000 0.730890
vt 0.605890 0.750000
vt 0.394110 0.750000
vt 0.375000 0.769110
vt 0.375000 0.769110
vt 0.605890 0.250000
vt 0.605890 0.250000
vt 0.625000 0.230890
vt 0.394110 0.250000
vt 0.375000 0.230890
vt 0.605890 0.000000
vt 0.625000 0.019110
vt 0.144110 0.750000
vt 0.125000 0.730890
vt 0.125000 0.519110
vt 0.394110 0.000000
vt 0.394110 0.269110
vt 0.605890 0.230890
vt 0.605890 0.269110
vt 0.625000 0.980890
vt 0.625000 0.769110
vt 0.355890 0.730890
vt 0.625000 0.269110
vt 0.394110 0.480890
vt 0.605890 0.980891
vt 0.855891 0.730890
vt 0.144110 0.500000
vt 0.355890 0.750000
vn 0.0000 -1.0000 0.0000
vn -1.0000 0.0000 0.0000
vn 0.0000 0.0000 1.0000
vn 0.0000 1.0000 0.0000
vn 1.0000 0.0000 0.0000
vn 0.5774 0.5774 -0.5774
vn 0.5774 -0.5774 -0.5774
vn 0.5774 0.5774 0.5774
vn 0.5774 -0.5774 0.5774
vn -0.5774 0.5774 -0.5774
vn -0.5774 -0.5774 -0.5774
vn -0.5774 0.5774 0.5774
vn -0.5774 -0.5774 0.5774
vn -0.7071 -0.7071 0.0000
vn 0.0000 -0.7071 -0.7071
vn 0.7071 0.0000 -0.7071
vn -0.7071 0.0000 0.7071
vn 0.7071 0.0000 0.7071
vn -0.7071 0.0000 -0.7071
vn 0.0000 0.7071 0.7071
vn 0.7071 0.7071 0.0000
vn 0.0000 -0.7071 0.7071
vn -0.7071 0.7071 0.0000
vn 0.0000 0.7071 -0.7071
vn 0.7071 -0.7071 0.0000
vn 0.0000 0.0000 -1.0000
s off
f 4/1/1 22/2/1 18/3/1
f 19/4/2 16/5/2 24/6/2
f 9/7/3 23/8/3 11/9/3
f 15/10/4 8/11/4 2/12/4
f 3/13/5 10/14/5 6/15/5
f 1/16/6 2/17/6 3/18/6
f 4/1/7 5/19/7 6/20/7
f 7/21/8 8/22/8 9/23/8
f 10/24/9 11/25/9 12/26/9
f 13/27/10 14/28/10 15/29/10
f 16/5/11 17/30/11 18/31/11
f 19/4/12 20/32/12 21/33/12
f 22/2/13 23/34/13 24/35/13
f 22/2/14 16/36/14 18/3/14
f 18/3/15 5/19/15 4/1/15
f 6/15/16 1/16/16 3/13/16
f 20/32/17 24/6/17 23/37/17
f 11/9/18 7/21/18 9/7/18
f 17/38/19 14/39/19 13/40/19
f 21/41/20 9/7/20 8/42/20
f 8/11/21 3/13/21 2/12/21
f 12/43/22 23/34/22 22/2/22
f 15/29/23 19/4/23 21/33/23
f 2/17/24 13/40/24 15/44/24
f 4/1/25 10/14/25 12/43/25
f 13/40/26 5/45/26 17/38/26
f 4/1/1 12/43/1 22/2/1
f 19/4/2 14/39/2 16/5/2
f 9/7/3 20/46/3 23/8/3
f 15/10/4 21/47/4 8/11/4
f 3/13/5 7/21/5 10/14/5
f 22/2/14 24/35/14 16/36/14
f 18/3/15 17/48/15 5/19/15
f 6/15/16 5/45/16 1/16/16
f 20/32/17 19/4/17 24/6/17
f 11/9/18 10/14/18 7/21/18
f 17/38/19 16/5/19 14/39/19
f 21/41/20 20/46/20 9/7/20
f 8/11/21 7/21/21 3/13/21
f 12/43/22 11/49/22 23/34/22
f 15/29/23 14/39/23 19/4/23
f 2/17/24 1/16/24 13/40/24
f 4/1/25 6/15/25 10/14/25
f 13/40/26 1/16/26 5/45/26
